<svg width="119" height="62" viewBox="0 0 119 62" fill="none" xmlns="http://www.w3.org/2000/svg">
<path d="M29.88 3H30.88V2H29.88V3ZM29.88 59V60H30.88V59H29.88ZM11 59H10V60H11V59ZM11 17.24H12V16.24H11V17.24ZM1.4 17.24H0.4V18.24H1.4V17.24ZM1.4 3V2H0.4V3H1.4ZM28.88 3V59H30.88V3H28.88ZM29.88 58H11V60H29.88V58ZM12 59V17.24H10V59H12ZM11 16.24H1.4V18.24H11V16.24ZM2.4 17.24V3H0.4V17.24H2.4ZM1.4 4H29.88V2H1.4V4ZM48.9175 56.84L48.3907 57.69L48.3977 57.6943L48.4048 57.6985L48.9175 56.84ZM39.9575 46.76L39.0567 47.1941L39.0598 47.2007L39.0631 47.2072L39.9575 46.76ZM39.9575 15.32L39.0609 14.8771L39.0587 14.8816L39.9575 15.32ZM48.9175 5.24L49.4355 6.09536L49.4389 6.09328L48.9175 5.24ZM75.2375 5.24L74.7107 6.09001L74.7177 6.09433L74.7248 6.09854L75.2375 5.24ZM84.1975 15.32L83.2967 15.7541L83.2998 15.7607L83.3031 15.7672L84.1975 15.32ZM84.1975 46.76L83.3009 46.3171L83.2987 46.3216L84.1975 46.76ZM75.2375 56.84L75.7555 57.6954L75.759 57.6933L75.2375 56.84ZM62.1175 59.28C57.3178 59.28 53.0987 58.1724 49.4302 55.9815L48.4048 57.6985C52.4163 60.0943 56.9972 61.28 62.1175 61.28V59.28ZM49.4443 55.99C45.8303 53.7503 42.9641 50.5371 40.8519 46.3128L39.0631 47.2072C41.3242 51.7296 44.4314 55.2363 48.3907 57.69L49.4443 55.99ZM40.8583 46.3259C38.8039 42.0629 37.7575 36.9646 37.7575 31H35.7575C35.7575 37.1954 36.8444 42.6038 39.0567 47.1941L40.8583 46.3259ZM37.7575 31C37.7575 25.035 38.8041 19.9655 40.8563 15.7584L39.0587 14.8816C36.8443 19.4212 35.7575 24.805 35.7575 31H37.7575ZM40.8541 15.7629C42.9664 11.4866 45.8301 8.27893 49.4355 6.09536L48.3995 4.38464C44.4316 6.78773 41.3219 10.3 39.0609 14.8771L40.8541 15.7629ZM49.4389 6.09328C53.1062 3.8522 57.3221 2.72 62.1175 2.72V0.719997C56.9929 0.719997 52.4088 1.93447 48.396 4.38671L49.4389 6.09328ZM62.1175 2.72C66.9131 2.72 71.0998 3.85224 74.7107 6.09001L75.7643 4.38999C71.8019 1.93442 67.2419 0.719997 62.1175 0.719997V2.72ZM74.7248 6.09854C78.3802 8.28163 81.2396 11.4858 83.2967 15.7541L85.0984 14.8859C82.8887 10.3009 79.7748 6.78504 75.7502 4.38145L74.7248 6.09854ZM83.3031 15.7672C85.4055 19.972 86.4775 25.0383 86.4775 31H88.4775C88.4775 24.8017 87.3629 19.4147 85.0919 14.8728L83.3031 15.7672ZM86.4775 31C86.4775 36.9613 85.4056 42.0564 83.3009 46.3171L85.0941 47.2029C87.3627 42.6103 88.4775 37.1987 88.4775 31H86.4775ZM83.2987 46.3216C81.242 50.538 78.38 53.7476 74.7161 55.9867L75.759 57.6933C79.775 55.2391 82.8864 51.7287 85.0963 47.1984L83.2987 46.3216ZM74.7195 55.9846C71.1073 58.1723 66.9174 59.28 62.1175 59.28V61.28C67.2376 61.28 71.7944 60.0944 75.7555 57.6954L74.7195 55.9846ZM62.1175 46.16C63.3812 46.16 64.5263 45.8061 65.511 45.0798C66.4844 44.362 67.2457 43.322 67.8288 42.0319C68.984 39.4759 69.5175 35.7641 69.5175 31H67.5175C67.5175 35.6759 66.9843 39.0441 66.0063 41.2081C65.5227 42.278 64.9506 43.008 64.324 43.4702C63.7087 43.9239 62.9871 44.16 62.1175 44.16V46.16ZM69.5175 31C69.5175 26.2359 68.984 22.5241 67.8288 19.9681C67.2457 18.678 66.4844 17.638 65.511 16.9202C64.5263 16.1939 63.3812 15.84 62.1175 15.84V17.84C62.9871 17.84 63.7087 18.0761 64.324 18.5298C64.9506 18.992 65.5227 19.722 66.0063 20.7919C66.9843 22.9559 67.5175 26.3241 67.5175 31H69.5175ZM62.1175 15.84C60.8538 15.84 59.7087 16.1939 58.724 16.9202C57.7506 17.638 56.9894 18.678 56.4063 19.9681C55.251 22.5241 54.7175 26.2359 54.7175 31H56.7175C56.7175 26.3241 57.2507 22.9559 58.2287 20.7919C58.7123 19.722 59.2844 18.992 59.911 18.5298C60.5263 18.0761 61.2479 17.84 62.1175 17.84V15.84ZM54.7175 31C54.7175 35.7641 55.251 39.4759 56.4063 42.0319C56.9894 43.322 57.7506 44.362 58.724 45.0798C59.7087 45.8061 60.8538 46.16 62.1175 46.16V44.16C61.2479 44.16 60.5263 43.9239 59.911 43.4702C59.2844 43.008 58.7123 42.278 58.2287 41.2081C57.2507 39.0441 56.7175 35.6759 56.7175 31H54.7175ZM117.927 3H118.927V2H117.927V3ZM117.927 59V60H118.927V59H117.927ZM99.0469 59H98.0469V60H99.0469V59ZM99.0469 17.24H100.047V16.24H99.0469V17.24ZM89.4469 17.24H88.4469V18.24H89.4469V17.24ZM89.4469 3V2H88.4469V3H89.4469ZM116.927 3V59H118.927V3H116.927ZM117.927 58H99.0469V60H117.927V58ZM100.047 59V17.24H98.0469V59H100.047ZM99.0469 16.24H89.4469V18.24H99.0469V16.24ZM90.4469 17.24V3H88.4469V17.24H90.4469ZM89.4469 4H117.927V2H89.4469V4Z" fill="#0B141D"/>
</svg>
