<svg width="114" height="70" viewBox="0 0 114 70" fill="none" xmlns="http://www.w3.org/2000/svg">
<g filter="url(#filter0_d)">
<path d="M39.76 25.16L39.0475 24.4583L37.815 25.7098L39.5203 26.1308L39.76 25.16ZM49.68 31L48.9034 31.63L48.9099 31.6381L48.9166 31.6459L49.68 31ZM50.4 50.52L49.5563 49.9831L49.5538 49.9872L50.4 50.52ZM41.92 57.56L42.347 58.4642L41.92 57.56ZM15.76 59L15.5459 59.9768L15.5487 59.9774L15.76 59ZM5.52 55.24L4.61143 54.8223L4.22674 55.659L5.02899 56.1112L5.52 55.24ZM11.92 41.32L12.4226 40.4555L11.4712 39.9023L11.0114 40.9023L11.92 41.32ZM19.28 44.36L19.0236 45.3266L19.0284 45.3278L19.28 44.36ZM32.24 44.28L31.7514 43.4075H31.7514L32.24 44.28ZM20.16 37.24H19.16V38.24H20.16V37.24ZM20.16 25.64L19.4461 24.9397L19.16 25.2314V25.64H20.16ZM28.4 17.24L29.1139 17.9403L30.7818 16.24H28.4V17.24ZM8.4 17.24H7.4V18.24H8.4V17.24ZM8.4 3V2H7.4V3H8.4ZM50.16 3H51.16V2H50.16V3ZM50.16 14.6L50.8725 15.3017L51.16 15.0098V14.6H50.16ZM39.5203 26.1308C43.6771 27.1572 46.7754 29.0072 48.9034 31.63L50.4566 30.37C47.9979 27.3395 44.4829 25.2961 39.9997 24.1892L39.5203 26.1308ZM48.9166 31.6459C51.0969 34.2226 52.2 37.3479 52.2 41.08H54.2C54.2 36.9188 52.9565 33.324 50.4434 30.3541L48.9166 31.6459ZM52.2 41.08C52.2 44.243 51.3246 47.2044 49.5563 49.9831L51.2437 51.0569C53.2087 47.969 54.2 44.637 54.2 41.08H52.2ZM49.5538 49.9872C47.8644 52.6703 45.2033 54.9037 41.493 56.6558L42.347 58.4642C46.3167 56.5897 49.3089 54.1297 51.2462 51.0528L49.5538 49.9872ZM41.493 56.6558C37.8242 58.3883 33.2072 59.28 27.6 59.28V61.28C33.4061 61.28 38.3358 60.3584 42.347 58.4642L41.493 56.6558ZM27.6 59.28C23.726 59.28 19.8502 58.8613 15.9713 58.0226L15.5487 59.9774C19.5632 60.8454 23.5807 61.28 27.6 61.28V59.28ZM15.9741 58.0232C12.1605 57.1873 8.84362 55.9654 6.01101 54.3689L5.02899 56.1112C8.06305 57.8213 11.5728 59.106 15.5459 59.9768L15.9741 58.0232ZM6.42857 55.6577L12.8286 41.7377L11.0114 40.9023L4.61143 54.8223L6.42857 55.6577ZM11.4174 42.1845C13.7893 43.5636 16.3257 44.6108 19.0236 45.3266L19.5364 43.3934C17.0077 42.7225 14.6373 41.7431 12.4226 40.4555L11.4174 42.1845ZM19.0284 45.3278C21.7673 46.0399 24.4121 46.4 26.96 46.4V44.4C24.6012 44.4 22.1261 44.0667 19.5316 43.3922L19.0284 45.3278ZM26.96 46.4C29.2485 46.4 31.1954 46.0111 32.7286 45.1525L31.7514 43.4075C30.618 44.0422 29.0449 44.4 26.96 44.4V46.4ZM32.7286 45.1525C34.3385 44.251 35.24 42.8715 35.24 41.08H33.24C33.24 42.0618 32.8082 42.8157 31.7514 43.4075L32.7286 45.1525ZM35.24 41.08C35.24 39.4436 34.4968 38.1533 33.0806 37.3343C31.7476 36.5634 29.877 36.24 27.6 36.24V38.24C29.7497 38.24 31.1991 38.5566 32.0794 39.0657C32.8765 39.5267 33.24 40.1564 33.24 41.08H35.24ZM27.6 36.24H20.16V38.24H27.6V36.24ZM21.16 37.24V25.64H19.16V37.24H21.16ZM20.8739 26.3403L29.1139 17.9403L27.6861 16.5397L19.4461 24.9397L20.8739 26.3403ZM28.4 16.24H8.4V18.24H28.4V16.24ZM9.4 17.24V3H7.4V17.24H9.4ZM8.4 4H50.16V2H8.4V4ZM49.16 3V14.6H51.16V3H49.16ZM49.4475 13.8983L39.0475 24.4583L40.4725 25.8617L50.8725 15.3017L49.4475 13.8983ZM69.6206 56.84L69.0939 57.69L69.1008 57.6943L69.1079 57.6985L69.6206 56.84ZM60.6606 46.76L59.7598 47.1941L59.7629 47.2007L59.7662 47.2072L60.6606 46.76ZM60.6606 15.32L59.764 14.8771L59.7619 14.8816L60.6606 15.32ZM69.6206 5.24L70.1387 6.09536L70.1421 6.09328L69.6206 5.24ZM95.9406 5.24L95.4139 6.09001L95.4208 6.09433L95.4279 6.09854L95.9406 5.24ZM104.901 15.32L104 15.7541L104.003 15.7607L104.006 15.7672L104.901 15.32ZM104.901 46.76L104.004 46.3171L104.002 46.3216L104.901 46.76ZM95.9406 56.84L96.4587 57.6954L96.4621 57.6933L95.9406 56.84ZM82.8206 59.28C78.021 59.28 73.8019 58.1724 70.1334 55.9815L69.1079 57.6985C73.1194 60.0943 77.7003 61.28 82.8206 61.28V59.28ZM70.1474 55.99C66.5334 53.7503 63.6672 50.5371 61.5551 46.3128L59.7662 47.2072C62.0274 51.7296 65.1345 55.2363 69.0939 57.69L70.1474 55.99ZM61.5615 46.3259C59.507 42.0629 58.4606 36.9646 58.4606 31H56.4606C56.4606 37.1954 57.5476 42.6038 59.7598 47.1941L61.5615 46.3259ZM58.4606 31C58.4606 25.035 59.5072 19.9655 61.5594 15.7584L59.7619 14.8816C57.5474 19.4212 56.4606 24.805 56.4606 31H58.4606ZM61.5572 15.7629C63.6696 11.4866 66.5332 8.27893 70.1387 6.09536L69.1026 4.38464C65.1347 6.78773 62.025 10.3 59.764 14.8771L61.5572 15.7629ZM70.1421 6.09328C73.8093 3.8522 78.0252 2.72 82.8206 2.72V0.719997C77.696 0.719997 73.112 1.93447 69.0992 4.38671L70.1421 6.09328ZM82.8206 2.72C87.6162 2.72 91.8029 3.85224 95.4139 6.09001L96.4674 4.38999C92.505 1.93442 87.945 0.719997 82.8206 0.719997V2.72ZM95.4279 6.09854C99.0833 8.28163 101.943 11.4858 104 15.7541L105.801 14.8859C103.592 10.3009 100.478 6.78504 96.4534 4.38145L95.4279 6.09854ZM104.006 15.7672C106.109 19.972 107.181 25.0383 107.181 31H109.181C109.181 24.8017 108.066 19.4147 105.795 14.8728L104.006 15.7672ZM107.181 31C107.181 36.9613 106.109 42.0564 104.004 46.3171L105.797 47.2029C108.066 42.6103 109.181 37.1987 109.181 31H107.181ZM104.002 46.3216C101.945 50.538 99.0832 53.7476 95.4192 55.9867L96.4621 57.6933C100.478 55.2391 103.59 51.7287 105.799 47.1984L104.002 46.3216ZM95.4226 55.9846C91.8104 58.1723 87.6205 59.28 82.8206 59.28V61.28C87.9407 61.28 92.4975 60.0944 96.4587 57.6954L95.4226 55.9846ZM82.8206 46.16C84.0844 46.16 85.2294 45.8061 86.2142 45.0798C87.1875 44.362 87.9488 43.322 88.5319 42.0319C89.6871 39.4759 90.2206 35.7641 90.2206 31H88.2206C88.2206 35.6759 87.6875 39.0441 86.7094 41.2081C86.2258 42.278 85.6537 43.008 85.0271 43.4702C84.4119 43.9239 83.6902 44.16 82.8206 44.16V46.16ZM90.2206 31C90.2206 26.2359 89.6871 22.5241 88.5319 19.9681C87.9488 18.678 87.1875 17.638 86.2142 16.9202C85.2294 16.1939 84.0844 15.84 82.8206 15.84V17.84C83.6902 17.84 84.4119 18.0761 85.0271 18.5298C85.6537 18.992 86.2258 19.722 86.7094 20.7919C87.6875 22.9559 88.2206 26.3241 88.2206 31H90.2206ZM82.8206 15.84C81.5569 15.84 80.4119 16.1939 79.4271 16.9202C78.4537 17.638 77.6925 18.678 77.1094 19.9681C75.9541 22.5241 75.4206 26.2359 75.4206 31H77.4206C77.4206 26.3241 77.9538 22.9559 78.9319 20.7919C79.4154 19.722 79.9875 18.992 80.6142 18.5298C81.2294 18.0761 81.951 17.84 82.8206 17.84V15.84ZM75.4206 31C75.4206 35.7641 75.9541 39.4759 77.1094 42.0319C77.6925 43.322 78.4537 44.362 79.4271 45.0798C80.4119 45.8061 81.5569 46.16 82.8206 46.16V44.16C81.951 44.16 81.2294 43.9239 80.6142 43.4702C79.9875 43.008 79.4154 42.278 78.9319 41.2081C77.9538 39.0441 77.4206 35.6759 77.4206 31H75.4206Z" fill="#0B141D"/>
</g>
<defs>
<filter id="filter0_d" x="0.226746" y="0.719971" width="112.954" height="68.56" filterUnits="userSpaceOnUse" color-interpolation-filters="sRGB">
<feFlood flood-opacity="0" result="BackgroundImageFix"/>
<feColorMatrix in="SourceAlpha" type="matrix" values="0 0 0 0 0 0 0 0 0 0 0 0 0 0 0 0 0 0 127 0"/>
<feOffset dy="4"/>
<feGaussianBlur stdDeviation="2"/>
<feColorMatrix type="matrix" values="0 0 0 0 0 0 0 0 0 0 0 0 0 0 0 0 0 0 0.25 0"/>
<feBlend mode="normal" in2="BackgroundImageFix" result="effect1_dropShadow"/>
<feBlend mode="normal" in="SourceGraphic" in2="effect1_dropShadow" result="shape"/>
</filter>
</defs>
</svg>
