<svg width="100" height="60" viewBox="0 0 100 60" fill="none" xmlns="http://www.w3.org/2000/svg">
<path d="M49.6 0.999996H50.6V-3.8147e-06H49.6V0.999996ZM49.6 12.6L50.522 12.9871L50.6 12.8014V12.6H49.6ZM30.96 57V58H31.6247L31.882 57.3871L30.96 57ZM10.32 57L9.40113 56.6054L8.80231 58H10.32V57ZM28.08 15.64L28.9989 16.0346L29.5977 14.64H28.08V15.64ZM17.28 15.64V14.64H16.28V15.64H17.28ZM17.28 23.8V24.8H18.28V23.8H17.28ZM1.68 23.8H0.68V24.8H1.68V23.8ZM1.68 0.999996V-3.8147e-06H0.68V0.999996H1.68ZM48.6 0.999996V12.6H50.6V0.999996H48.6ZM48.678 12.2129L30.038 56.6129L31.882 57.3871L50.522 12.9871L48.678 12.2129ZM30.96 56H10.32V58H30.96V56ZM11.2389 57.3946L28.9989 16.0346L27.1611 15.2454L9.40113 56.6054L11.2389 57.3946ZM28.08 14.64H17.28V16.64H28.08V14.64ZM16.28 15.64V23.8H18.28V15.64H16.28ZM17.28 22.8H1.68V24.8H17.28V22.8ZM2.68 23.8V0.999996H0.68V23.8H2.68ZM1.68 2H49.6V-3.8147e-06H1.68V2ZM84.9319 23.16L84.2194 22.4583L82.9869 23.7098L84.6922 24.1308L84.9319 23.16ZM94.8519 29L94.0753 29.63L94.0818 29.6381L94.0885 29.6459L94.8519 29ZM95.5719 48.52L94.7282 47.9831L94.7256 47.9872L95.5719 48.52ZM87.0919 55.56L87.5189 56.4642L87.0919 55.56ZM60.9319 57L60.7178 57.9768L60.7205 57.9774L60.9319 57ZM50.6919 53.24L49.7833 52.8223L49.3986 53.659L50.2009 54.1112L50.6919 53.24ZM57.0919 39.32L57.5945 38.4555L56.643 37.9023L56.1833 38.9023L57.0919 39.32ZM64.4519 42.36L64.1954 43.3266L64.2002 43.3278L64.4519 42.36ZM77.4119 42.28L76.9233 41.4075L77.4119 42.28ZM65.3319 35.24H64.3319V36.24H65.3319V35.24ZM65.3319 23.64L64.618 22.9397L64.3319 23.2314V23.64H65.3319ZM73.5719 15.24L74.2858 15.9403L75.9536 14.24H73.5719V15.24ZM53.5719 15.24H52.5719V16.24H53.5719V15.24ZM53.5719 0.999996V-3.8147e-06H52.5719V0.999996H53.5719ZM95.3319 0.999996H96.3319V-3.8147e-06H95.3319V0.999996ZM95.3319 12.6L96.0444 13.3017L96.3319 13.0098V12.6H95.3319ZM84.6922 24.1308C88.849 25.1572 91.9473 27.0072 94.0753 29.63L95.6284 28.37C93.1698 25.3395 89.6548 23.2961 85.1716 22.1892L84.6922 24.1308ZM94.0885 29.6459C96.2688 32.2226 97.3719 35.3479 97.3719 39.08H99.3719C99.3719 34.9188 98.1283 31.324 95.6153 28.3541L94.0885 29.6459ZM97.3719 39.08C97.3719 42.243 96.4965 45.2044 94.7282 47.9831L96.4155 49.0569C98.3806 45.969 99.3719 42.637 99.3719 39.08H97.3719ZM94.7256 47.9872C93.0363 50.6703 90.3752 52.9037 86.6649 54.6558L87.5189 56.4642C91.4886 54.5897 94.4808 52.1297 96.4181 49.0528L94.7256 47.9872ZM86.6649 54.6558C82.996 56.3883 78.3791 57.28 72.7719 57.28V59.28C78.578 59.28 83.5077 58.3584 87.5189 56.4642L86.6649 54.6558ZM72.7719 57.28C68.8979 57.28 65.022 56.8613 61.1432 56.0226L60.7205 57.9774C64.735 58.8454 68.7525 59.28 72.7719 59.28V57.28ZM61.146 56.0232C57.3324 55.1873 54.0155 53.9654 51.1829 52.3689L50.2009 54.1112C53.2349 55.8213 56.7447 57.106 60.7178 57.9768L61.146 56.0232ZM51.6004 53.6577L58.0004 39.7377L56.1833 38.9023L49.7833 52.8223L51.6004 53.6577ZM56.5893 40.1845C58.9612 41.5636 61.4975 42.6108 64.1954 43.3266L64.7083 41.3934C62.1796 40.7225 59.8092 39.7431 57.5945 38.4555L56.5893 40.1845ZM64.2002 43.3278C66.9392 44.0399 69.584 44.4 72.1319 44.4V42.4C69.7731 42.4 67.2979 42.0667 64.7035 41.3922L64.2002 43.3278ZM72.1319 44.4C74.4203 44.4 76.3672 44.0111 77.9005 43.1525L76.9233 41.4075C75.7898 42.0422 74.2168 42.4 72.1319 42.4V44.4ZM77.9005 43.1525C79.5103 42.251 80.4119 40.8715 80.4119 39.08H78.4119C78.4119 40.0618 77.9801 40.8157 76.9233 41.4075L77.9005 43.1525ZM80.4119 39.08C80.4119 37.4436 79.6687 36.1533 78.2525 35.3343C76.9195 34.5634 75.0488 34.24 72.7719 34.24V36.24C74.9216 36.24 76.3709 36.5566 77.2513 37.0657C78.0484 37.5267 78.4119 38.1564 78.4119 39.08H80.4119ZM72.7719 34.24H65.3319V36.24H72.7719V34.24ZM66.3319 35.24V23.64H64.3319V35.24H66.3319ZM66.0457 24.3403L74.2858 15.9403L72.858 14.5397L64.618 22.9397L66.0457 24.3403ZM73.5719 14.24H53.5719V16.24H73.5719V14.24ZM54.5719 15.24V0.999996H52.5719V15.24H54.5719ZM53.5719 2H95.3319V-3.8147e-06H53.5719V2ZM94.3319 0.999996V12.6H96.3319V0.999996H94.3319ZM94.6194 11.8983L84.2194 22.4583L85.6444 23.8617L96.0444 13.3017L94.6194 11.8983Z" fill="#0B141D"/>
</svg>
